<?xml version="1.0" standalone="no"?>
<!DOCTYPE svg PUBLIC "-//W3C//DTD SVG 20010904//EN"
 "http://www.w3.org/TR/2001/REC-SVG-20010904/DTD/svg10.dtd">
<svg version="1.0" xmlns="http://www.w3.org/2000/svg"
 width="360.000000pt" height="360.000000pt" viewBox="0 0 360.000000 360.000000"
 preserveAspectRatio="xMidYMid meet">

<g transform="translate(0.000000,360.000000) scale(0.100000,-0.100000)"
fill="#000000" stroke="none">
<path d="M1380 1800 l0 -120 105 0 105 0 0 120 0 120 -105 0 -105 0 0 -120z"/>
<path d="M1690 1800 l0 -120 110 0 110 0 0 120 0 120 -110 0 -110 0 0 -120z"/>
<path d="M2017 1913 c-4 -3 -7 -57 -7 -120 l0 -113 104 0 105 0 3 104 c2 57 2
111 0 120 -3 13 -19 16 -101 16 -54 0 -101 -3 -104 -7z"/>
</g>
</svg>
