<?xml version="1.0" standalone="no"?>
<!DOCTYPE svg PUBLIC "-//W3C//DTD SVG 20010904//EN"
 "http://www.w3.org/TR/2001/REC-SVG-20010904/DTD/svg10.dtd">
<svg version="1.0" xmlns="http://www.w3.org/2000/svg"
 width="360.000000pt" height="360.000000pt" viewBox="0 0 360.000000 360.000000"
 preserveAspectRatio="xMidYMid meet">

<g transform="translate(0.000000,360.000000) scale(0.100000,-0.100000)"
fill="#000000" stroke="none">
<path d="M1211 1974 c-72 -91 -131 -169 -131 -174 0 -4 19 -32 43 -61 79 -99
153 -194 182 -231 l27 -38 104 0 c57 0 104 2 104 5 0 3 -57 77 -126 166 -84
108 -122 164 -116 172 33 44 172 220 204 259 21 26 38 51 38 57 0 7 -35 11
-99 11 l-100 0 -130 -166z"/>
<path d="M1752 1978 c-29 -90 -77 -238 -107 -331 -30 -92 -55 -172 -55 -177 0
-7 39 -10 107 -8 l107 3 32 100 c17 55 65 204 106 332 42 128 73 235 70 238
-3 3 -51 5 -107 5 l-101 0 -52 -162z"/>
<path d="M2060 2129 c0 -7 24 -42 53 -78 29 -36 86 -108 126 -159 l72 -93
-108 -137 c-59 -75 -116 -146 -125 -156 -34 -37 -23 -42 80 -41 53 1 99 3 102
4 3 0 39 44 80 97 41 53 99 125 128 161 28 35 52 68 52 71 0 10 -239 315 -257
330 -22 16 -203 17 -203 1z"/>
</g>
</svg>
